# xmcd CD database file
#
# Track frame offsets:
#	150
#	20899
#	36598
#	53092
#	66937
#	79537
#	94046
#	113584
#	127772
#	141090
#	160960
#	173447
#
# Disc length: 2557 seconds
#
# Revision: 0
# Processed by: cddbd v1.5PL3 Copyright (c) Steve Scherf et al.
# Submitted via: CDex 1.50
#
DISCID=9609fb0c
DTITLE=Rewa Mcgregor - One Step At A Time
DYEAR=1900
DGENRE=Country
TTITLE0=Rewa Mcgregor - One Step At A Time
TTITLE1=Rewa Mcgregor - I Just Wanna Dance With You
TTITLE2=Rewa Mcgregor - My First Reaction
TTITLE3=Rewa Mcgregor - Since I Met You Baby
TTITLE4=Rewa Mcgregor - Waltz Across Texas
TTITLE5=Rewa Mcgregor - Walking Piece Of Heaven - With Hine Rickard
TTITLE6=Rewa Mcgregor - Heaven Knows
TTITLE7=Rewa Mcgregor - The Juke Box In My Mind
TTITLE8=Rewa Mcgregor - We're All Passing Through
TTITLE9=Rewa Mcgregor - He's There For Me
TTITLE10=Rewa Mcgregor - Say Hello
TTITLE11=Rewa Mcgregor - A Little Spot In Heaven
EXTD=
EXTT0=
EXTT1=
EXTT2=
EXTT3=
EXTT4=
EXTT5=
EXTT6=
EXTT7=
EXTT8=
EXTT9=
EXTT10=
EXTT11=
PLAYORDER=
